<svg width="111" height="132" viewBox="0 0 111 132" fill="none" xmlns="http://www.w3.org/2000/svg">
<path d="M20.1838 73.531C16.9309 52.2102 33.4325 33 55 33C76.5675 33 93.0691 52.2102 89.8162 73.531L84.7679 106.62C82.9796 118.341 72.8995 127 61.0425 127H48.9576C37.1005 127 27.0204 118.341 25.2321 106.62L20.1838 73.531Z" fill="#D69A6E"/>
<ellipse cx="31.6487" cy="41.3717" rx="7.53545" ry="7.37174" fill="#F6D5A9"/>
<ellipse cx="10.5496" cy="67.9098" rx="10.5496" ry="10.3204" fill="#F6D5A9"/>
<path d="M3.01416 60.5383L25.6205 36.9487L39 43L26.6843 96.5L3.01416 60.5383Z" fill="#F6D5A9"/>
<path d="M0.184326 93L0 67.9099L19.6843 73L26.6843 92.5L0.184326 93Z" fill="#F6D5A9"/>
<ellipse cx="13.6846" cy="93" rx="13.5" ry="13" fill="#F6D5A9"/>
<ellipse cx="7.53545" cy="7.37174" rx="7.53545" ry="7.37174" transform="matrix(-1 0 0 1 86.0708 34)" fill="#F6D5A9"/>
<ellipse cx="10.5496" cy="10.3204" rx="10.5496" ry="10.3204" transform="matrix(-1 0 0 1 110.184 57.5894)" fill="#F6D5A9"/>
<path d="M107.17 60.5383L84.5636 36.9487L71.1841 43L83.4998 96.5L107.17 60.5383Z" fill="#F6D5A9"/>
<path d="M110 93L110.184 67.9099L90.4998 73L83.4998 92.5L110 93Z" fill="#F6D5A9"/>
<ellipse cx="13.5" cy="13" rx="13.5" ry="13" transform="matrix(-1 0 0 1 110 80)" fill="#F6D5A9"/>
<circle cx="41.5" cy="80" r="3" fill="black"/>
<circle cx="67.5" cy="80" r="3" fill="black"/>
<path d="M54.5 110V118" stroke="black"/>
<path d="M43.5 114C43.5 119 51.1452 121.143 54.5 118" stroke="black"/>
<path d="M65.5 114C65.5 119 58.1129 121.143 54.5 118" stroke="black"/>
<ellipse cx="54.5" cy="109" rx="8" ry="5" fill="black"/>
</svg>
