<svg width="101" height="125" viewBox="0 0 101 125" fill="none" xmlns="http://www.w3.org/2000/svg">
<path d="M27.63 76.5166C22.8593 61.3988 34.1473 46 50 46C65.8527 46 77.1407 61.3988 72.37 76.5166L62.0716 109.151C60.4093 114.419 55.5235 118 50 118C44.4765 118 39.5907 114.419 37.9284 109.151L27.63 76.5166Z" fill="#F6D5A9"/>
<circle cx="37" cy="79" r="3" fill="black"/>
<circle cx="63" cy="79" r="3" fill="black"/>
<ellipse cx="50" cy="111" rx="8" ry="4" fill="black"/>
<ellipse cx="31.6487" cy="52.3717" rx="7.53545" ry="7.37174" fill="#482712"/>
<ellipse cx="10.5496" cy="78.9098" rx="10.5496" ry="10.3204" fill="#482712"/>
<path d="M3.01416 71.5383L25.6205 47.9487L39 54L26.6843 107.5L3.01416 71.5383Z" fill="#482712"/>
<path d="M0.184326 104L0 78.9099L19.6843 84L26.6843 103.5L0.184326 104Z" fill="#482712"/>
<ellipse cx="13.6846" cy="104" rx="13.5" ry="13" fill="#482712"/>
<ellipse cx="7.53545" cy="7.37174" rx="7.53545" ry="7.37174" transform="matrix(-1 0 0 1 76.0708 45)" fill="#482712"/>
<ellipse cx="10.5496" cy="10.3204" rx="10.5496" ry="10.3204" transform="matrix(-1 0 0 1 100.184 68.5894)" fill="#482712"/>
<path d="M97.1699 71.5383L74.5636 47.9487L61.1841 54L73.4998 107.5L97.1699 71.5383Z" fill="#482712"/>
<path d="M99.9998 104L100.184 78.9099L80.4998 84L73.4998 103.5L99.9998 104Z" fill="#482712"/>
<ellipse cx="13.5" cy="13" rx="13.5" ry="13" transform="matrix(-1 0 0 1 99.9995 91)" fill="#482712"/>
</svg>
