<svg width="70" height="70" viewBox="0 0 70 70" fill="none" xmlns="http://www.w3.org/2000/svg">
<path d="M32.0673 50.1613H37.0464L34.5569 52.82L32.0673 50.1613Z" stroke="#FF7700" stroke-width="5" stroke-linecap="round" stroke-linejoin="round"/>
<path d="M47.8344 42.1851V43.9575" stroke="#FF7700" stroke-width="5" stroke-linecap="round" stroke-linejoin="round"/>
<path d="M9.39584 32.4258C8.46685 36.2569 7.99837 40.1987 8.0017 44.1561C8.0017 58.9458 19.8918 67 34.5568 67C49.2219 67 61.112 58.9458 61.112 44.1561C61.0954 40.1825 60.5443 36.232 59.4755 32.4258" stroke="#FF7700" stroke-width="5" stroke-linecap="round" stroke-linejoin="round"/>
<path d="M21.2793 42.1851V43.9575" stroke="#FF7700" stroke-width="5" stroke-linecap="round" stroke-linejoin="round"/>
<path d="M22.939 22.6877C21.6643 26.4099 19.3441 29.8769 15.1583 31.5501C8.74858 34.1096 3.28818 30.4973 3.02263 28.0051C2.64754 24.4814 6.92955 4.85643 16.3002 3.19029C22.6834 2.05235 28.4193 6.1858 28.4193 11.1133C32.6176 9.9746 37.0216 10.0259 41.1956 11.2622C41.1956 6.33469 47.3166 2.05235 53.6998 3.19029C63.0704 4.85643 67.3525 24.4814 66.9774 28.0051C66.7118 30.4973 61.2514 34.1096 54.8417 31.5501C50.6559 29.8769 48.6842 26.4099 47.4095 22.6877" stroke="#FF7700" stroke-width="5" stroke-linecap="round" stroke-linejoin="round"/>
</svg>
